P3
39 47
255
255
255
255
255
255
255
255
255
255
255
255
255
255
255
255
255
255
255
255
255
255
255
255
255
255
255
255
255
255
255
255
255
255
255
255
255
255
255
255
255
255
255
255
255
255
255
255
255
255
255
255
255
255
255
255
255
255
255
255
255
255
255
255
255
255
255
255
255
255
255
255
255
255
255
255
255
255
255
255
255
255
255
255
255
255
255
255
255
255
255
255
255
255
255
255
255
255
255
255
255
255
255
255
255
255
255
255
255
255
255
255
255
255
255
255
255
255
255
255
255
255
255
255
255
255
255
255
255
255
255
255
255
255
255
255
255
255
255
255
255
255
255
255
255
255
255
255
255
255
255
255
255
255
255
255
255
255
255
255
255
255
255
255
255
255
255
255
255
255
255
255
255
255
255
255
255
255
255
255
255
255
255
255
255
255
255
255
255
255
255
255
255
63
16
21
21
3
5
255
255
255
255
255
255
255
255
255
255
255
255
21
2
6
45
4
15
255
255
255
255
255
255
255
255
255
255
255
255
255
255
255
255
255
255
255
255
255
255
255
255
255
255
255
255
255
255
255
255
255
255
255
255
255
255
255
255
255
255
255
255
255
255
255
255
255
255
255
255
255
255
255
255
255
255
255
255
255
255
255
255
255
255
255
255
255
255
255
255
255
255
255
255
255
255
255
255
255
255
255
255
255
255
255
255
255
255
255
255
255
187
53
73
104
28
38
10
2
2
255
255
255
255
255
255
255
255
255
79
9
32
156
22
65
18
1
5
255
255
255
255
255
255
255
255
255
255
255
255
255
255
255
255
255
255
255
255
255
255
255
255
255
255
255
255
255
255
255
255
255
255
255
255
255
255
255
255
255
255
255
255
255
255
255
255
255
255
255
255
255
255
255
255
255
255
255
255
255
255
255
255
255
255
255
255
255
255
255
255
255
255
255
255
255
255
255
255
255
255
255
255
255
255
255
255
255
255
162
24
67
237
59
95
151
46
57
255
255
255
255
255
255
255
255
255
79
9
32
214
32
90
214
32
90
255
255
255
255
255
255
255
255
255
255
255
255
255
255
255
255
255
255
255
255
255
255
255
255
255
255
255
255
255
255
255
255
255
255
255
255
255
255
255
255
255
255
255
255
255
255
255
255
255
255
255
255
255
255
255
255
255
255
255
255
255
255
255
255
255
255
255
255
255
255
255
255
255
255
255
255
255
255
255
255
255
255
255
255
255
255
255
255
255
255
121
11
51
191
26
80
222
47
90
223
70
86
255
255
255
255
255
255
59
4
22
172
20
72
214
32
90
197
29
83
26
2
7
255
255
255
255
255
255
255
255
255
255
255
255
255
255
255
255
255
255
255
255
255
255
255
255
255
255
255
255
255
255
255
255
255
255
255
255
255
255
255
255
255
255
255
255
255
255
255
255
255
255
255
255
255
255
255
255
255
255
255
255
255
255
255
255
255
255
255
255
255
255
255
255
255
255
255
255
255
255
255
255
255
255
255
255
118
11
49
166
18
70
198
55
89
249
132
123
146
45
55
31
27
59
22
25
76
80
29
88
174
21
73
213
31
89
28
2
9
255
255
255
255
255
255
255
255
255
255
255
255
255
255
255
255
255
255
255
255
255
255
255
255
255
255
255
255
255
255
255
255
255
255
255
255
255
255
255
255
255
255
255
255
255
255
255
255
255
255
255
255
255
255
255
255
255
255
255
255
255
255
255
255
255
255
255
255
255
255
255
255
255
255
255
255
255
255
255
255
255
255
255
255
67
18
63
127
20
73
180
43
82
238
107
118
255
115
116
140
70
106
66
60
112
43
54
111
90
26
83
188
25
79
90
9
37
19
2
6
255
255
255
255
255
255
255
255
255
255
255
255
255
255
255
255
255
255
255
255
255
255
255
255
255
255
255
255
255
255
255
255
255
255
255
255
255
255
255
255
255
255
255
255
255
255
255
255
255
255
255
255
255
255
255
255
255
255
255
255
255
255
255
255
255
255
255
255
255
255
255
255
255
255
255
255
255
255
0
1
3
7
38
88
78
32
89
153
22
76
206
34
88
255
149
133
255
112
115
170
93
121
69
77
127
10
48
112
129
20
73
190
28
85
87
10
34
255
255
255
255
255
255
255
255
255
255
255
255
255
255
255
255
255
255
255
255
255
255
255
255
255
255
255
255
255
255
255
255
255
255
255
255
255
255
255
255
255
255
255
255
255
255
255
255
255
255
255
255
255
255
255
255
255
255
255
255
255
255
255
255
255
255
255
255
255
255
255
255
255
255
255
0
0
1
0
40
107
54
87
134
28
64
121
47
32
94
159
18
67
255
81
99
255
181
156
234
119
130
177
48
102
66
97
140
1
40
107
154
34
94
87
10
34
255
255
255
255
255
255
255
255
255
255
255
255
255
255
255
255
255
255
255
255
255
255
255
255
255
255
255
255
255
255
255
255
255
255
255
255
255
255
255
255
255
255
255
255
255
255
255
255
255
255
255
255
255
255
255
255
255
255
255
255
255
255
255
255
255
255
255
255
255
255
255
255
8
14
22
50
78
117
0
40
107
54
87
134
28
64
121
47
32
94
158
16
66
218
37
90
246
137
131
252
179
154
246
165
149
235
82
103
3
40
106
116
23
79
171
21
73
133
18
53
255
255
255
255
255
255
255
255
255
255
255
255
255
255
255
255
255
255
255
255
255
255
255
255
255
255
255
255
255
255
255
255
255
255
255
255
255
255
255
255
255
255
255
255
255
255
255
255
255
255
255
255
255
255
255
255
255
255
255
255
255
255
255
109
108
109
69
78
93
82
96
117
176
187
209
93
127
174
36
72
128
10
49
112
17
37
102
62
30
91
177
21
74
217
66
100
242
131
130
255
155
138
255
81
98
95
126
173
183
154
182
216
103
141
156
22
65
255
255
255
255
255
255
255
255
255
255
255
255
255
255
255
255
255
255
255
255
255
255
255
255
255
255
255
255
255
255
255
255
255
47
4
17
36
3
13
15
4
15
0
5
20
0
5
20
0
5
20
0
5
20
0
5
20
0
5
20
0
5
20
205
147
170
131
124
160
119
142
175
212
222
238
187
204
229
77
110
160
23
62
124
0
39
107
4
39
105
122
36
66
151
44
77
189
78
97
227
108
113
255
110
114
188
141
170
207
201
220
214
136
171
156
22
65
255
255
255
255
255
255
255
255
255
255
255
255
255
255
255
255
255
255
255
255
255
255
255
255
255
255
255
255
255
255
2
0
1
216
36
90
180
26
75
88
30
86
1
41
107
6
46
110
6
46
110
6
46
110
10
49
113
14
53
117
6
46
110
170
34
93
123
68
118
102
118
160
150
177
210
255
251
255
175
189
214
84
101
149
20
44
105
9
44
101
82
79
60
76
82
76
111
52
73
170
52
82
244
146
132
254
90
103
186
145
174
181
104
149
151
21
63
255
255
255
255
255
255
255
255
255
255
255
255
255
255
255
255
255
255
255
255
255
255
255
255
255
255
255
25
2
7
214
32
90
254
80
98
255
81
99
135
61
102
13
51
113
66
97
140
66
97
140
66
96
140
99
130
170
135
165
203
66
97
140
7
46
110
132
35
96
161
55
107
83
111
150
255
250
255
255
177
159
255
116
116
197
78
89
72
75
64
222
130
16
164
167
169
106
124
138
88
58
66
156
16
66
253
159
138
255
103
110
209
51
83
112
10
47
255
255
255
255
255
255
255
255
255
255
255
255
255
255
255
255
255
255
255
255
255
116
15
48
167
23
69
186
36
75
248
73
97
254
80
98
255
130
124
220
95
114
145
36
96
10
49
112
10
49
112
10
49
112
38
74
128
77
107
149
66
97
140
7
46
110
132
35
96
188
30
85
143
43
91
164
189
220
239
110
125
255
125
121
245
171
161
225
219
216
222
130
16
234
214
196
150
154
155
109
99
88
239
180
156
98
88
78
33
18
18
7
1
2
2
0
1
255
255
255
255
255
255
255
255
255
255
255
255
255
255
255
255
255
255
96
12
38
205
49
81
237
60
95
242
77
102
255
127
122
255
127
122
254
152
135
246
114
119
207
53
92
90
26
83
5
39
105
0
40
107
11
49
112
27
64
120
27
64
120
3
42
108
147
52
99
220
47
89
186
30
84
152
84
128
217
57
99
209
119
144
211
195
204
254
249
251
241
200
154
251
221
195
214
189
166
195
167
139
255
211
173
157
107
39
20
11
3
255
255
255
255
255
255
255
255
255
255
255
255
255
255
255
255
255
255
2
0
1
43
4
14
216
62
66
246
103
67
255
122
89
255
141
119
255
177
150
255
162
140
255
143
130
248
103
112
224
55
90
156
16
66
55
31
92
49
32
94
49
32
94
53
40
90
80
86
73
80
99
110
188
88
105
244
69
96
222
44
91
174
21
73
192
25
80
154
93
130
144
162
182
196
203
219
221
227
242
247
214
188
239
179
155
228
158
135
244
185
123
129
74
8
14
7
1
255
255
255
255
255
255
255
255
255
255
255
255
255
255
255
255
255
255
41
4
14
214
41
82
223
132
15
248
176
8
255
212
73
254
228
143
255
212
170
255
166
139
253
101
109
233
56
93
200
29
83
161
24
62
156
16
65
156
16
66
157
16
66
173
41
57
255
186
0
255
227
110
255
138
108
255
81
99
251
76
98
214
32
90
168
19
71
110
50
65
73
81
85
73
95
138
143
172
206
228
199
174
205
112
112
171
47
51
205
120
14
255
255
255
255
255
255
255
255
255
255
255
255
255
255
255
255
255
255
255
255
255
67
5
27
176
51
50
223
132
15
255
186
0
255
224
103
255
222
153
255
217
162
255
235
132
255
234
132
225
86
101
186
24
78
176
50
52
255
186
0
161
26
62
156
16
66
179
22
75
220
54
76
255
186
0
254
185
0
254
120
61
255
81
99
251
76
98
214
32
90
214
32
90
218
87
48
202
95
31
152
18
66
66
73
66
186
117
27
222
130
16
146
84
9
255
255
255
255
255
255
255
255
255
255
255
255
255
255
255
255
255
255
255
255
255
255
255
255
67
5
27
121
29
72
47
59
87
53
70
84
53
78
106
145
115
79
235
159
43
255
196
27
255
196
27
191
67
59
198
80
44
238
157
11
255
186
0
210
110
24
172
45
53
161
17
68
176
26
71
222
64
71
222
64
71
222
50
83
222
42
91
221
41
91
214
32
90
219
96
41
191
70
45
128
38
68
32
35
98
13
46
98
22
16
11
18
8
1
7
3
0
255
255
255
255
255
255
255
255
255
255
255
255
255
255
255
255
255
255
255
255
255
255
255
255
31
10
37
61
41
99
34
70
124
34
70
124
34
70
124
89
92
101
134
111
74
120
109
56
236
156
8
178
53
50
194
81
39
237
156
8
237
156
8
113
87
60
84
46
79
73
28
87
77
29
89
101
36
98
174
25
79
202
28
85
214
32
89
214
32
90
214
32
90
191
63
50
123
46
67
51
32
93
0
38
103
0
9
33
0
0
1
255
255
255
255
255
255
255
255
255
255
255
255
255
255
255
255
255
255
255
255
255
255
255
255
255
255
255
0
2
6
7
29
65
32
68
123
66
96
140
66
97
140
66
97
140
66
97
140
53
86
133
17
54
115
162
106
40
170
62
49
196
85
35
210
125
20
163
106
39
9
44
102
11
50
112
17
54
115
14
52
114
0
39
107
101
24
80
141
29
87
157
34
94
163
37
94
216
68
94
132
30
79
49
32
93
0
40
107
0
38
100
255
255
255
255
255
255
255
255
255
255
255
255
255
255
255
255
255
255
255
255
255
255
255
255
255
255
255
255
255
255
255
255
255
0
30
82
38
72
126
66
96
140
66
97
140
66
97
140
66
96
140
66
97
140
66
97
140
66
97
140
0
40
107
162
105
40
222
130
16
176
111
34
0
40
107
0
40
107
44
78
129
66
97
140
56
88
135
0
40
107
0
39
106
0
40
106
0
40
107
20
52
107
221
170
107
37
62
107
0
40
107
0
40
107
0
38
100
255
255
255
255
255
255
255
255
255
255
255
255
255
255
255
255
255
255
255
255
255
255
255
255
255
255
255
255
255
255
255
255
255
0
30
82
38
72
126
66
96
140
70
100
143
148
178
214
148
178
214
70
106
158
65
94
145
255
251
255
1
41
107
162
105
40
118
87
58
13
51
113
66
97
140
143
173
209
220
227
241
210
220
238
135
165
203
66
97
140
7
46
110
40
75
127
42
76
128
0
40
107
0
40
107
0
40
107
37
58
83
93
55
66
156
16
66
156
16
66
12
1
3
255
255
255
255
255
255
255
255
255
255
255
255
255
255
255
255
255
255
255
255
255
255
255
255
255
255
255
0
30
82
72
107
157
126
156
194
124
154
192
87
118
159
196
207
226
133
153
185
81
111
155
176
197
224
1
40
107
162
105
40
118
87
58
3
43
108
17
54
115
83
114
156
106
131
166
161
176
200
211
220
236
126
156
194
57
90
138
96
128
170
98
129
171
44
78
129
0
39
107
0
40
107
74
34
83
139
26
66
156
16
66
156
16
66
111
11
46
118
14
49
89
9
35
255
255
255
255
255
255
255
255
255
255
255
255
255
255
255
255
255
255
255
255
255
0
7
30
39
65
106
99
133
179
143
174
210
66
97
140
214
217
230
176
190
213
97
129
172
77
112
163
104
82
64
190
117
28
118
87
58
0
40
107
0
40
106
62
93
138
66
97
140
106
130
164
162
178
202
148
178
214
109
140
179
107
138
177
82
114
159
34
69
124
31
66
122
5
44
109
46
32
94
82
27
85
84
26
84
156
16
66
156
16
66
171
20
72
148
18
61
49
3
20
255
255
255
255
255
255
255
255
255
255
255
255
255
255
255
255
255
255
255
255
255
0
9
31
33
63
108
113
145
188
52
84
133
180
189
209
163
182
210
98
125
164
46
58
87
220
129
16
187
116
29
93
77
68
2
42
108
13
52
113
62
94
138
66
96
139
60
92
137
66
98
145
148
178
214
147
178
214
88
120
163
33
68
123
6
45
110
66
97
140
22
59
118
13
52
113
9
48
111
4
39
105
123
21
74
159
35
59
169
40
55
171
42
54
176
51
52
20
8
1
255
255
255
255
255
255
255
255
255
255
255
255
255
255
255
255
255
255
255
255
255
0
4
14
0
40
107
0
40
107
51
84
132
31
67
122
57
63
83
222
130
16
221
130
16
59
64
82
0
40
107
13
51
113
66
97
140
66
97
139
66
97
140
38
73
126
21
60
122
148
178
214
148
178
214
56
92
147
0
39
107
6
45
110
66
97
140
66
97
140
66
96
140
46
79
130
0
40
107
0
40
107
172
109
36
222
130
16
230
143
12
254
186
0
222
130
15
30
15
1
255
255
255
255
255
255
255
255
255
255
255
255
255
255
255
255
255
255
255
255
255
255
255
255
255
255
255
151
90
15
211
126
21
213
126
19
222
130
16
222
130
16
59
64
82
0
40
107
13
51
113
66
97
140
138
169
205
91
121
162
38
73
126
10
49
112
70
101
143
14
53
116
41
62
85
40
60
82
0
40
107
3
43
108
55
87
134
66
97
140
64
96
139
60
91
137
0
40
107
9
43
103
43
72
118
93
118
150
153
178
202
75
99
134
19
53
108
0
11
38
255
255
255
255
255
255
255
255
255
255
255
255
255
255
255
255
255
255
255
255
255
128
72
7
199
117
13
222
130
16
167
99
11
38
20
2
214
62
66
185
66
92
93
54
104
4
43
109
20
57
117
87
118
160
74
105
147
38
73
126
9
46
104
66
80
89
47
64
80
58
69
70
42
61
80
0
40
107
0
40
107
17
54
115
20
57
117
34
69
124
65
96
139
45
79
129
10
48
112
33
69
123
86
117
158
148
178
214
67
98
141
18
55
116
0
12
43
255
255
255
255
255
255
255
255
255
255
255
255
255
255
255
6
2
0
66
37
3
222
130
16
123
71
7
100
57
5
87
43
10
57
5
21
230
52
93
248
73
97
186
85
109
107
84
117
107
57
103
42
72
124
38
73
126
22
59
118
5
38
93
28
32
28
28
32
28
28
32
28
16
24
34
0
17
52
0
40
107
0
40
106
0
40
107
11
49
112
38
73
126
38
73
126
8
47
111
53
51
107
106
82
127
113
143
182
66
97
140
18
55
116
0
12
43
255
255
255
255
255
255
255
255
255
255
255
255
2
1
0
49
28
2
172
101
11
172
101
11
12
5
0
1
0
0
43
4
15
214
32
90
254
80
98
254
90
103
255
125
121
255
148
132
255
93
105
53
49
105
29
39
102
13
34
93
0
23
65
255
255
255
255
255
255
255
255
255
255
255
255
0
0
1
24
36
100
24
36
100
29
37
102
33
38
104
33
38
104
33
38
104
26
36
101
91
25
82
131
33
83
55
88
134
55
88
134
14
45
97
0
9
31
255
255
255
255
255
255
255
255
255
255
255
255
98
57
5
128
74
8
255
255
255
255
255
255
255
255
255
58
4
23
170
20
72
214
32
90
254
80
98
254
140
128
255
162
140
255
162
140
255
162
140
255
85
101
188
37
76
70
5
29
255
255
255
255
255
255
255
255
255
255
255
255
255
255
255
1
0
1
156
16
66
156
16
66
188
25
79
214
32
90
214
32
90
214
32
90
169
19
71
156
16
66
117
21
76
0
40
107
0
40
107
0
3
11
255
255
255
255
255
255
255
255
255
255
255
255
255
255
255
255
255
255
255
255
255
255
255
255
255
255
255
132
77
8
217
140
10
246
144
30
250
75
98
254
153
135
254
159
138
255
128
122
255
89
103
255
89
103
171
26
71
39
3
14
255
255
255
255
255
255
255
255
255
255
255
255
255
255
255
255
255
255
1
0
1
156
16
66
199
27
83
211
31
88
214
32
90
211
31
89
162
17
68
157
16
66
62
4
24
1
0
1
0
0
1
0
0
1
255
255
255
255
255
255
255
255
255
255
255
255
255
255
255
255
255
255
255
255
255
255
255
255
255
255
255
112
65
6
212
141
6
249
192
46
254
206
92
255
178
119
255
177
51
254
128
97
242
82
104
221
48
90
192
39
78
41
3
14
2
0
1
255
255
255
255
255
255
255
255
255
255
255
255
255
255
255
12
1
3
88
7
36
192
26
81
210
30
88
214
32
90
202
28
85
176
21
74
156
16
66
57
4
22
7
0
2
255
255
255
255
255
255
255
255
255
255
255
255
255
255
255
255
255
255
255
255
255
255
255
255
255
255
255
255
255
255
4
0
1
54
7
17
222
130
16
247
173
3
255
202
43
255
221
95
255
235
132
255
204
49
246
127
63
219
65
74
167
21
70
78
6
31
255
255
255
255
255
255
255
255
255
255
255
255
255
255
255
255
255
255
255
255
255
30
2
10
159
16
67
192
26
81
210
30
88
215
52
74
209
71
56
191
76
42
156
16
66
12
1
3
255
255
255
255
255
255
255
255
255
255
255
255
255
255
255
255
255
255
255
255
255
255
255
255
255
255
255
255
255
255
255
255
255
34
3
11
208
34
84
221
119
23
247
163
13
253
177
5
252
192
31
255
229
118
255
229
118
230
156
43
179
73
35
95
8
39
255
255
255
255
255
255
255
255
255
255
255
255
255
255
255
255
255
255
255
255
255
255
255
255
43
5
14
163
28
60
166
33
59
209
45
76
222
97
43
233
149
10
247
173
4
156
16
66
12
1
3
255
255
255
255
255
255
255
255
255
255
255
255
255
255
255
255
255
255
255
255
255
255
255
255
255
255
255
255
255
255
255
255
255
24
1
7
158
16
67
214
32
90
246
70
97
237
106
55
230
144
11
255
186
0
255
186
0
230
145
11
87
50
4
255
255
255
255
255
255
255
255
255
255
255
255
255
255
255
255
255
255
255
255
255
255
255
255
76
6
30
179
56
48
225
135
14
255
186
0
255
186
0
255
186
0
245
169
4
219
125
17
156
16
66
12
1
3
255
255
255
255
255
255
255
255
255
255
255
255
255
255
255
255
255
255
255
255
255
255
255
255
255
255
255
255
255
255
51
3
21
146
16
61
206
31
86
248
73
97
253
79
98
252
85
92
242
80
83
220
56
75
227
138
13
182
62
46
64
11
20
255
255
255
255
255
255
255
255
255
255
255
255
255
255
255
255
255
255
255
255
255
255
255
255
76
6
30
179
56
48
222
130
15
227
138
13
227
138
13
227
138
13
208
107
26
167
33
59
204
29
86
174
25
73
143
18
60
78
6
31
255
255
255
255
255
255
255
255
255
255
255
255
255
255
255
255
255
255
255
255
255
51
3
21
133
15
56
204
36
84
238
63
96
255
127
122
255
127
122
255
127
122
244
103
114
214
32
90
183
63
45
74
15
22
12
1
3
255
255
255
255
255
255
255
255
255
255
255
255
255
255
255
255
255
255
255
255
255
22
34
50
100
82
115
162
93
113
183
63
44
183
63
44
211
71
56
217
73
58
216
67
66
214
53
85
237
60
95
237
60
95
213
42
87
156
19
65
70
5
28
255
255
255
255
255
255
255
255
255
255
255
255
255
255
255
255
255
255
120
11
50
189
25
79
226
47
92
255
84
101
255
162
140
255
174
148
254
169
144
244
128
127
214
32
90
156
16
66
18
1
6
255
255
255
255
255
255
255
255
255
255
255
255
255
255
255
255
255
255
255
255
255
255
255
255
54
80
117
100
131
171
124
112
154
131
39
87
174
21
73
207
30
87
214
32
90
222
42
91
242
66
96
255
81
99
255
81
99
240
63
95
209
39
86
156
16
66
255
255
255
255
255
255
255
255
255
255
255
255
255
255
255
255
255
255
115
12
52
185
25
80
226
47
92
255
84
100
255
157
137
255
194
162
255
179
152
244
125
125
214
32
90
148
17
68
15
1
6
255
255
255
255
255
255
255
255
255
255
255
255
255
255
255
255
255
255
255
255
255
255
255
255
52
78
115
64
95
139
66
97
140
79
90
135
210
31
88
210
31
88
208
33
90
206
35
92
207
37
93
249
86
105
249
86
105
247
83
103
220
65
92
147
17
68
255
255
255
255
255
255
255
255
255
255
255
255
255
255
255
255
255
255
0
30
82
123
35
97
226
47
92
254
81
99
255
81
99
255
80
99
255
81
99
244
68
96
214
32
90
1
39
106
0
3
9
255
255
255
255
255
255
255
255
255
255
255
255
255
255
255
255
255
255
255
255
255
255
255
255
0
33
89
40
75
127
65
97
139
74
89
133
156
16
66
156
16
66
105
61
107
65
97
140
69
100
142
148
178
214
148
178
214
106
136
176
49
82
131
0
40
107
255
255
255
255
255
255
255
255
255
255
255
255
255
255
255
255
255
255
0
30
82
55
64
119
120
106
148
170
157
189
170
157
189
170
157
189
170
157
189
151
138
174
97
83
129
0
40
107
0
3
9
255
255
255
255
255
255
255
255
255
255
255
255
255
255
255
255
255
255
255
255
255
255
255
255
0
1
5
6
29
65
13
51
113
15
50
112
32
34
98
32
34
98
22
44
107
13
51
113
14
52
114
31
69
129
31
69
129
22
60
121
10
49
112
0
40
107
255
255
255
255
255
255
255
255
255
255
255
255
255
255
255
255
255
255
0
6
24
15
40
82
43
78
133
70
105
157
70
105
157
70
105
157
70
105
157
60
95
148
31
67
122
0
10
33
0
1
2
255
255
255
255
255
255
255
255
255
255
255
255
255
255
255
255
255
255
255
255
255
255
255
255
255
255
255
0
3
13
0
9
33
0
9
33
0
9
33
0
9
33
0
9
33
0
9
33
0
9
33
0
9
33
0
9
33
0
9
33
0
9
33
0
9
33
255
255
255
255
255
255
255
255
255
255
255
255
255
255
255
255
255
255
255
255
255
0
8
27
0
23
67
0
23
67
0
23
67
0
23
67
0
23
67
0
23
67
0
23
67
255
255
255
255
255
255
255
255
255
255
255
255
255
255
255
255
255
255
255
255
255
255
255
255
255
255
255
255
255
255
255
255
255
255
255
255
255
255
255
255
255
255
255
255
255
255
255
255
255
255
255
255
255
255
255
255
255
255
255
255
255
255
255
255
255
255
255
255
255
255
255
255
255
255
255
255
255
255
255
255
255
255
255
255
255
255
255
255
255
255
255
255
255
255
255
255
255
255
255
255
255
255
255
255
255
255
255
255
255
255
255
255
255
255
255
255
255
255
255
255
255
255
255
255
255
255
255
255
255
255
255
255
255
255
255
255
255
255
255
255
255
255
255
255
255
255
255
255
255
255
255
255
255
255
255
255
255
255
255
255
255
255
255
255
255
255
255
255
255
255
255
255
255
255
255
255
255
255
255
255
255
255
255
255
255
255
255
255
255
255
255
255
255
255
255
255
255
255
255
255
255
255
255
255
