P2
39 47
255
255
255
255
255
255
255
255
255
255
255
255
255
255
255
255
255
255
255
255
255
255
255
255
255
255
255
255
255
255
255
255
255
255
255
255
255
255
255
255
255
255
255
255
255
255
255
255
255
255
255
255
255
255
255
255
255
255
255
255
255
255
255
255
255
33
8
255
255
255
255
7
20
255
255
255
255
255
255
255
255
255
255
255
255
255
255
255
255
255
255
255
255
255
255
255
255
255
255
255
255
255
255
255
105
57
4
255
255
255
39
81
5
255
255
255
255
255
255
255
255
255
255
255
255
255
255
255
255
255
255
255
255
255
255
255
255
255
255
255
255
255
255
85
131
85
255
255
255
39
113
113
255
255
255
255
255
255
255
255
255
255
255
255
255
255
255
255
255
255
255
255
255
255
255
255
255
255
255
255
255
255
61
100
120
127
255
255
27
89
113
104
9
255
255
255
255
255
255
255
255
255
255
255
255
255
255
255
255
255
255
255
255
255
255
255
255
255
255
255
255
60
86
111
167
82
31
30
51
91
113
10
255
255
255
255
255
255
255
255
255
255
255
255
255
255
255
255
255
255
255
255
255
255
255
255
255
255
255
255
39
67
99
150
161
94
66
57
53
99
45
7
255
255
255
255
255
255
255
255
255
255
255
255
255
255
255
255
255
255
255
255
255
255
255
255
255
255
1
39
51
80
110
179
159
117
80
50
68
100
43
255
255
255
255
255
255
255
255
255
255
255
255
255
255
255
255
255
255
255
255
255
255
255
255
255
0
43
85
64
42
82
146
199
155
100
95
43
85
43
255
255
255
255
255
255
255
255
255
255
255
255
255
255
255
255
255
255
255
255
255
255
255
255
13
76
43
85
64
42
81
116
169
197
186
138
43
63
89
69
255
255
255
255
255
255
255
255
255
255
255
255
255
255
255
255
255
255
255
255
255
108
77
95
186
124
71
51
41
45
92
124
165
183
146
124
163
141
81
255
255
255
255
255
255
255
255
255
255
255
21
15
7
5
5
5
5
5
5
5
164
128
140
221
202
108
62
42
42
69
85
116
146
159
155
204
160
81
255
255
255
255
255
255
255
255
255
255
1
115
95
54
44
48
48
48
51
54
48
92
88
118
174
252
188
101
47
45
79
80
72
97
174
149
157
129
79
255
255
255
255
255
255
255
255
255
9
113
146
146
87
52
95
95
94
127
162
95
48
75
95
109
251
197
161
119
74
154
166
121
67
80
185
155
115
56
255
255
255
255
255
255
255
59
87
100
140
146
169
137
81
51
51
51
73
105
95
48
75
100
82
186
152
166
190
220
154
218
153
101
194
90
22
2
1
255
255
255
255
255
255
48
112
131
139
167
167
181
157
115
53
42
43
51
64
64
45
88
119
99
107
121
147
199
250
208
227
194
172
220
118
13
255
255
255
255
255
255
1
19
121
150
163
174
197
187
176
152
123
80
44
43
43
48
84
96
121
137
120
91
101
113
160
202
227
221
193
176
197
88
8
255
255
255
255
255
255
18
115
155
191
218
230
220
189
154
128
105
84
80
80
81
94
200
229
172
146
143
113
87
70
80
94
169
205
140
94
142
255
255
255
255
255
255
255
32
98
155
200
227
227
224
235
234
135
97
98
200
84
80
93
121
200
199
161
146
143
113
113
131
128
79
71
134
154
100
255
255
255
255
255
255
255
255
32
66
59
68
75
121
176
206
206
111
119
176
200
138
94
83
92
124
124
121
119
119
113
135
112
72
42
47
17
10
4
255
255
255
255
255
255
255
255
19
52
69
69
69
92
115
109
174
100
118
175
175
92
59
47
50
63
92
106
113
113
113
109
73
43
41
9
0
255
255
255
255
255
255
255
255
255
2
29
67
94
95
95
95
84
55
119
99
120
147
119
45
51
55
53
42
57
77
86
90
124
72
43
43
40
255
255
255
255
255
255
255
255
255
255
255
32
71
94
95
95
94
95
95
95
43
119
154
127
43
43
77
95
86
43
42
43
43
53
180
62
43
43
40
255
255
255
255
255
255
255
255
255
255
255
32
71
94
98
174
174
104
93
252
44
119
94
52
95
169
226
219
162
95
48
74
75
43
43
43
56
66
80
80
4
255
255
255
255
255
255
255
255
255
32
105
153
151
115
206
151
109
194
43
119
94
45
55
111
129
174
219
153
88
125
126
77
42
43
50
74
80
80
56
60
44
255
255
255
255
255
255
255
8
64
130
170
95
217
189
126
110
87
135
94
43
43
91
95
128
176
174
137
135
111
68
66
46
42
50
51
80
80
89
76
22
255
255
255
255
255
255
255
9
62
142
82
188
180
123
58
153
134
80
45
53
92
94
90
96
174
174
117
67
47
95
59
53
50
42
65
85
91
93
98
11
255
255
255
255
255
255
255
4
43
43
82
66
63
154
154
64
43
52
95
95
95
72
60
174
174
90
42
47
95
95
94
78
43
43
124
154
164
199
154
19
255
255
255
255
255
255
255
255
255
105
148
148
154
154
64
43
52
95
165
118
72
51
99
54
60
58
43
45
85
95
94
89
43
45
71
115
174
97
53
12
255
255
255
255
255
255
255
87
138
154
116
24
120
109
69
46
58
115
102
72
47
78
62
67
59
43
43
55
58
68
94
78
50
68
114
174
96
56
13
255
255
255
255
255
3
44
154
84
68
55
27
126
140
119
92
75
71
72
59
40
31
31
31
23
18
43
43
43
51
72
72
49
57
91
140
95
56
13
255
255
255
255
1
33
119
119
6
0
19
113
146
149
166
179
151
55
44
38
24
255
255
255
255
0
41
41
43
44
44
44
42
53
73
86
86
46
9
255
255
255
255
67
88
255
255
255
27
88
113
146
174
187
187
187
148
101
33
255
255
255
255
255
0
80
80
99
113
113
113
88
80
63
43
43
3
255
255
255
255
255
255
255
255
255
91
158
171
142
181
185
168
149
149
90
17
255
255
255
255
255
255
0
80
105
112
113
112
84
81
29
0
0
0
255
255
255
255
255
255
255
255
255
77
157
202
214
196
194
166
141
120
103
18
1
255
255
255
255
255
4
43
101
111
113
106
92
80
26
2
255
255
255
255
255
255
255
255
255
255
1
26
154
189
210
224
235
212
162
123
87
38
255
255
255
255
255
255
255
11
82
101
111
118
120
114
80
4
255
255
255
255
255
255
255
255
255
255
255
14
110
147
182
193
203
230
230
173
108
47
255
255
255
255
255
255
255
255
19
86
88
113
137
169
189
80
4
255
255
255
255
255
255
255
255
255
255
255
8
81
113
139
148
165
200
200
166
59
255
255
255
255
255
255
255
255
37
101
158
200
200
200
185
150
80
4
255
255
255
255
255
255
255
255
255
255
23
75
109
140
145
146
140
121
160
105
32
255
255
255
255
255
255
255
255
37
101
154
160
160
160
136
89
108
91
74
38
255
255
255
255
255
255
255
23
68
109
133
167
167
167
151
113
105
38
4
255
255
255
255
255
255
255
33
89
114
105
105
121
125
122
118
131
131
115
81
33
255
255
255
255
255
255
61
99
122
147
187
195
191
164
113
80
6
255
255
255
255
255
255
255
255
78
128
118
75
91
109
113
119
135
146
146
133
112
80
255
255
255
255
255
255
58
97
122
147
184
208
198
162
113
77
5
255
255
255
255
255
255
255
255
76
93
95
91
111
111
110
110
111
146
146
144
125
76
255
255
255
255
255
255
32
71
122
146
146
146
146
137
113
42
3
255
255
255
255
255
255
255
255
35
74
94
90
80
80
77
95
98
174
174
133
80
43
255
255
255
255
255
255
32
67
112
162
162
162
162
143
90
43
3
255
255
255
255
255
255
255
255
1
29
52
52
41
41
47
52
53
69
69
60
51
43
255
255
255
255
255
255
6
40
77
103
103
103
103
93
66
10
1
255
255
255
255
255
255
255
255
255
3
9
9
9
9
9
9
9
9
9
9
9
9
255
255
255
255
255
255
255
8
25
25
25
25
25
25
25
255
255
255
255
255
255
255
255
255
255
255
255
255
255
255
255
255
255
255
255
255
255
255
255
255
255
255
255
255
255
255
255
255
255
255
255
255
255
255
255
255
255
255
255
255
255
255
255
255
255
255
255
255
255
255
255
255
255
255
255
255
255
255
255
255
255
255
255
